<?xml version="1.0" standalone="no"?>
<!DOCTYPE svg PUBLIC "-//W3C//DTD SVG 20010904//EN"
 "http://www.w3.org/TR/2001/REC-SVG-20010904/DTD/svg10.dtd">
<svg version="1.0" xmlns="http://www.w3.org/2000/svg"
 width="3072.000000pt" height="1536.000000pt" viewBox="0 0 3072.000000 1536.000000"
 preserveAspectRatio="xMidYMid meet">

<g transform="translate(0.000000,1536.000000) scale(0.100000,-0.100000)"
fill="#000000" stroke="none">
<path d="M0 7680 l0 -7680 15360 0 15360 0 0 7680 0 7680 -15360 0 -15360 0 0
-7680z m15003 6536 c40 -19 125 -78 190 -130 65 -52 155 -118 200 -146 197
-125 203 -131 363 -357 165 -234 229 -298 443 -443 97 -65 200 -140 230 -167
74 -65 148 -167 261 -360 52 -89 101 -162 108 -163 8 0 16 -9 19 -19 3 -11 12
-22 21 -25 10 -4 38 -19 64 -34 25 -15 72 -42 104 -61 32 -18 64 -39 72 -47 7
-8 17 -14 21 -14 5 0 24 -12 43 -27 19 -16 50 -39 69 -52 19 -14 82 -73 140
-131 79 -81 120 -114 165 -134 32 -15 73 -33 89 -41 53 -24 240 -95 250 -95 6
0 26 -11 45 -24 24 -16 41 -21 55 -16 11 4 28 2 38 -5 14 -9 28 -9 70 3 30 8
100 14 167 15 128 1 186 -14 288 -75 119 -72 246 -234 348 -443 116 -239 171
-433 204 -716 11 -96 32 -232 47 -304 33 -159 37 -320 9 -400 -31 -89 -95
-209 -138 -259 -40 -47 -122 -96 -161 -96 -11 0 -20 -10 -24 -30 -3 -17 -11
-29 -17 -27 -10 3 -36 -53 -36 -81 0 -8 -6 -28 -14 -45 -8 -18 -24 -58 -35
-90 -12 -31 -33 -81 -47 -110 -34 -65 -192 -297 -235 -343 -14 -15 -17 -24 -9
-29 8 -5 8 -10 0 -20 -16 -20 25 -68 160 -190 191 -172 338 -265 419 -265 43
0 80 46 91 115 23 142 55 190 149 226 107 40 296 7 399 -71 30 -22 58 -38 62
-35 5 3 15 -3 22 -13 7 -10 51 -45 98 -79 47 -33 106 -79 132 -102 54 -48 146
-167 175 -226 20 -43 84 -152 114 -196 38 -56 33 -125 -11 -156 -10 -7 -17
-20 -14 -27 7 -18 -36 -32 -136 -46 -83 -12 -130 -43 -130 -88 0 -13 31 -84
70 -158 145 -279 141 -382 -16 -414 -143 -29 -159 -52 -151 -220 3 -68 13
-135 23 -163 23 -68 94 -135 215 -203 127 -72 188 -117 311 -232 54 -50 137
-121 185 -158 101 -78 266 -218 331 -282 54 -52 126 -103 288 -205 140 -88
190 -127 380 -292 76 -66 176 -153 223 -193 92 -79 139 -130 294 -314 112
-134 153 -170 297 -263 117 -76 191 -137 395 -331 77 -73 183 -169 235 -215
52 -45 97 -86 98 -91 2 -5 34 -24 70 -42 90 -46 150 -90 205 -153 84 -96 137
-212 112 -246 -11 -15 -16 -16 -52 -3 -99 35 -151 76 -232 186 -31 41 -90 108
-131 148 -70 70 -87 80 -303 188 -250 124 -310 164 -478 321 -181 171 -300
246 -467 292 -167 46 -352 -18 -413 -143 -10 -22 -19 -55 -19 -73 0 -18 -4
-33 -10 -33 -5 0 -10 -8 -10 -19 0 -10 -12 -27 -27 -37 -23 -16 -45 -19 -128
-17 -124 2 -210 29 -341 108 -147 88 -246 134 -334 155 -25 6 -54 15 -65 19
-11 5 -47 16 -80 26 -33 10 -109 42 -169 72 -59 30 -147 67 -195 83 -47 15
-112 40 -144 54 -78 34 -106 31 -124 -13 -52 -125 -74 -405 -71 -910 2 -292 0
-375 -9 -378 -8 -3 -13 -24 -13 -55 0 -42 -2 -49 -17 -44 -10 3 -31 8 -48 11
-23 5 -26 4 -15 -4 27 -19 -28 -13 -206 23 -260 53 -357 73 -504 101 -74 15
-198 42 -274 61 -77 19 -157 34 -178 34 -46 0 -118 -34 -118 -55 0 -9 -10 -15
-25 -15 -14 0 -33 -6 -41 -13 -39 -31 -62 -60 -69 -85 -4 -15 -10 -156 -14
-314 -3 -157 -8 -289 -12 -292 -3 -3 -95 15 -205 40 -345 78 -427 94 -448 88
-17 -4 -18 -3 -6 6 12 9 7 10 -19 5 -24 -5 -32 -4 -26 5 5 8 -3 9 -30 4 -30
-5 -36 -4 -30 6 6 10 2 12 -16 7 -42 -11 -561 83 -529 96 8 3 -5 4 -30 1 -34
-4 -41 -3 -30 5 11 8 2 9 -34 4 -38 -5 -47 -3 -41 6 5 10 -4 11 -41 6 -33 -4
-44 -3 -35 3 9 7 -2 8 -34 4 -35 -3 -46 -2 -41 7 6 8 -4 10 -36 5 -34 -4 -40
-3 -28 6 12 9 5 10 -33 6 -30 -4 -46 -2 -42 4 3 6 0 10 -8 10 -7 0 -119 10
-248 22 -196 18 -305 22 -674 22 -488 1 -687 -11 -1100 -65 -480 -63 -820
-129 -1595 -312 -80 -19 -148 -33 -152 -30 -5 2 -8 198 -8 435 0 237 -3 429
-6 426 -3 -4 -18 7 -33 23 -28 28 -29 29 -87 18 -184 -32 -459 -88 -711 -144
-180 -40 -335 -73 -369 -79 -30 -5 -32 -3 -37 32 -23 164 -51 362 -76 552 -17
124 -42 311 -56 415 -14 105 -34 260 -45 345 -11 85 -32 243 -46 350 -109 832
-152 1173 -156 1230 l-3 45 628 3 c543 2 631 4 644 17 8 8 19 12 24 9 6 -3 43
25 82 62 40 37 108 102 152 144 116 110 314 291 355 324 19 16 35 33 35 39 0
6 9 11 19 13 11 1 31 15 45 30 l26 28 -25 -19 -25 -20 19 22 c10 13 22 20 27
18 7 -5 159 121 159 132 0 3 -33 -23 -72 -58 -70 -61 -69 -59 27 41 140 146
195 232 195 305 0 37 -18 64 -165 245 -163 202 -213 295 -260 483 -9 34 -38
108 -66 164 -59 121 -105 169 -274 289 -185 132 -210 158 -295 319 -102 191
-139 228 -202 202 -18 -8 -85 -53 -148 -100 -63 -47 -153 -107 -200 -133 -250
-139 -395 -266 -480 -419 -61 -110 -96 -148 -290 -319 -124 -109 -183 -154
-415 -318 -82 -58 -186 -138 -230 -177 -44 -39 -144 -123 -221 -186 -162 -132
-216 -193 -344 -395 -51 -80 -117 -176 -149 -214 -167 -204 -228 -297 -266
-407 -21 -58 -106 -177 -172 -240 -75 -72 -141 -108 -214 -116 -109 -11 -182
49 -215 175 -22 83 -39 243 -39 362 0 99 2 109 34 173 18 37 54 93 79 125 61
76 271 308 319 353 74 69 151 158 177 206 15 26 41 104 57 173 25 108 43 152
126 320 113 229 144 283 235 409 37 51 96 141 130 199 106 178 212 273 414
369 103 49 270 95 324 91 29 -2 34 -7 32 -23 -5 -36 -8 -50 -15 -65 -27 -66
-35 -166 -16 -203 32 -63 88 -72 166 -27 114 65 165 190 107 259 -33 40 -55
51 -113 60 -38 5 -47 10 -49 28 -5 35 47 120 113 185 51 51 86 73 250 153 185
92 228 120 385 253 34 29 87 65 118 81 54 27 268 100 342 116 49 11 104 48
128 87 53 85 91 239 157 634 69 408 81 468 94 460 5 -3 14 21 21 54 7 33 16
60 20 60 3 0 14 -17 25 -37 10 -21 20 -32 22 -25 3 6 14 12 24 12 36 0 58 19
131 118 169 226 394 407 668 535 52 24 105 55 116 68 12 13 48 71 80 129 155
282 370 488 661 634 61 30 133 64 161 75 64 25 148 77 156 96 6 18 3 35 -23
112 -18 53 -21 83 -19 210 1 144 0 150 -32 238 -54 147 -49 168 71 310 28 33
79 103 113 155 35 52 86 117 114 145 29 27 52 56 52 63 0 8 11 27 25 44 14 16
43 61 66 99 70 120 125 134 262 65z m-3401 -6128 c66 -59 68 -149 6 -273 -33
-64 -80 -115 -107 -115 -26 0 -72 49 -97 105 -21 45 -23 57 -14 109 12 72 49
138 98 171 45 31 81 32 114 3z"/>
<path d="M14650 12553 c-198 -15 -432 -78 -593 -160 -243 -123 -451 -347 -572
-616 l-39 -86 -105 -41 c-363 -143 -644 -388 -791 -689 -42 -84 -90 -228 -90
-267 0 -36 -11 -30 -45 24 l-30 47 -3 -30 c-2 -16 -16 -109 -32 -205 -102
-616 -101 -609 -101 -775 0 -209 27 -361 92 -525 126 -317 361 -504 713 -570
117 -22 120 -23 185 -76 79 -66 199 -125 313 -156 118 -31 309 -32 388 -2 30
12 158 63 284 113 126 50 231 90 233 88 2 -3 -17 -40 -43 -83 -26 -44 -76
-131 -112 -194 -133 -236 -278 -459 -407 -624 -302 -389 -590 -687 -900 -931
-52 -41 -127 -108 -255 -230 -41 -39 -143 -135 -227 -213 l-151 -142 -597 0
-597 0 6 -37 c3 -21 11 -78 16 -128 6 -49 22 -173 35 -275 13 -102 38 -291 55
-420 17 -129 44 -338 61 -465 16 -126 43 -331 60 -455 92 -699 120 -904 122
-906 1 0 99 21 217 48 233 52 684 142 900 180 l135 24 5 -460 c4 -403 7 -461
20 -458 590 138 789 180 1110 237 559 99 1055 145 1565 145 759 0 1495 -96
2417 -317 59 -14 115 -26 125 -27 17 -1 18 19 18 354 0 349 0 355 20 353 11
-1 46 -5 78 -8 l57 -7 0 76 0 76 28 -5 c281 -47 674 -131 1129 -241 101 -24
188 -44 194 -44 5 0 9 516 9 1380 l0 1380 -534 0 -533 0 -69 73 c-223 236
-402 415 -495 495 -367 315 -766 731 -980 1022 -106 143 -399 608 -399 632 0
4 21 -1 48 -9 69 -23 319 -23 437 0 145 29 318 85 500 162 94 40 204 81 245
90 178 42 367 151 491 283 147 157 229 341 249 559 24 269 -48 576 -191 808
l-49 81 11 59 c18 89 15 267 -5 362 -57 273 -219 491 -506 682 -58 39 -305
164 -432 219 -31 13 -57 35 -78 64 -87 122 -236 244 -381 312 -254 120 -601
138 -971 52 l-68 -16 -79 64 c-106 86 -181 136 -276 184 -264 134 -536 188
-835 165z m830 -2764 c-11 -43 -26 -445 -19 -484 3 -14 15 2 40 56 20 42 57
107 82 145 50 76 152 191 142 159 -14 -42 -34 -172 -35 -224 l0 -55 36 42 c33
39 120 100 129 90 2 -2 -11 -36 -30 -74 -65 -136 -107 -314 -141 -584 -8 -68
-16 -125 -17 -127 -1 -1 -33 12 -70 28 -187 83 -359 74 -497 -25 -39 -28 -50
-32 -50 -19 0 9 -14 47 -32 85 -28 63 -32 67 -48 53 -9 -8 -20 -15 -23 -15 -4
0 -7 88 -7 195 l0 195 38 -24 c101 -67 158 -29 183 122 10 66 -3 205 -34 365
l-23 114 105 7 c57 3 106 4 108 3 2 -2 6 -62 10 -133 6 -106 8 -123 16 -94 5
19 24 82 42 140 33 103 34 105 67 110 18 3 34 2 36 -1 1 -3 -2 -26 -8 -50z
m-655 -1242 c-7 -64 -17 -133 -21 -153 l-7 -37 43 24 c23 13 64 48 91 78 40
45 51 52 63 42 21 -17 54 -108 62 -170 l7 -51 49 73 c116 167 176 222 277 251
112 32 240 11 286 -47 24 -30 86 -155 100 -201 4 -15 15 7 39 79 48 150 101
215 174 215 75 0 148 -72 218 -216 60 -124 156 -289 297 -514 220 -349 391
-556 776 -940 152 -151 340 -331 419 -400 160 -139 160 -139 53 -161 -158 -33
-328 37 -496 206 -94 94 -162 194 -275 400 -45 83 -107 188 -138 235 -93 141
-219 260 -277 260 -35 0 -74 -30 -84 -65 -21 -77 19 -161 143 -298 142 -157
165 -196 130 -222 -14 -10 -37 9 -153 124 -75 75 -143 148 -153 162 -34 53
-59 161 -59 256 -1 84 2 99 35 171 20 44 36 89 36 101 0 12 -19 43 -43 69 -48
52 -75 94 -118 183 -33 68 -45 97 -125 309 -60 158 -94 224 -124 240 -28 15
-75 12 -114 -7 -40 -19 -59 -57 -102 -203 -15 -52 -30 -98 -34 -102 -3 -4 -43
55 -89 132 -46 76 -90 145 -98 151 -24 20 -114 22 -184 5 -87 -22 -145 -61
-190 -125 -45 -64 -147 -170 -189 -195 -35 -20 -30 -28 -61 99 -12 50 -23 92
-25 94 -2 2 -24 -15 -49 -37 -41 -36 -116 -71 -189 -88 -25 -6 -28 -5 -23 12
3 10 31 96 63 189 31 94 59 176 61 184 2 8 6 12 8 9 3 -2 -2 -57 -10 -121z
m-167 -228 c-135 -272 -227 -433 -456 -802 -116 -188 -162 -241 -369 -429
-134 -121 -253 -249 -371 -400 -63 -80 -183 -194 -315 -300 -100 -80 -125 -90
-147 -63 -11 13 -10 22 2 48 22 46 110 140 193 205 191 151 501 450 667 642
293 340 488 615 697 985 156 275 233 406 238 402 2 -2 -61 -132 -139 -288z
m223 -288 c19 -16 24 -29 24 -68 -1 -66 -32 -125 -121 -229 -61 -71 -114 -156
-114 -182 0 -3 12 6 28 20 37 35 184 140 189 134 2 -2 -12 -66 -30 -142 -19
-77 -39 -159 -45 -184 l-10 -45 -1 55 c0 30 8 95 19 144 11 50 20 91 20 93 0
11 -43 -22 -95 -74 -121 -117 -150 -163 -235 -373 -65 -161 -110 -239 -172
-295 -100 -90 -348 -191 -348 -142 0 21 19 40 125 128 158 131 199 179 261
307 97 200 218 389 390 607 117 150 137 202 94 245 -25 25 -10 26 21 1z m748
-178 c54 -153 149 -340 210 -413 137 -164 168 -286 106 -426 -13 -29 -64 -113
-114 -187 -160 -237 -209 -371 -196 -534 l7 -83 -63 0 -62 0 6 100 c4 72 15
125 37 192 37 113 78 183 182 311 44 54 91 123 106 155 54 119 25 236 -94 372
-99 112 -137 225 -150 440 -7 115 1 140 25 73z m-3675 -2010 c7 -64 49 -462
95 -898 17 -154 35 -331 42 -393 6 -62 13 -111 15 -109 2 1 15 104 28 227 14
124 41 362 60 530 20 168 45 388 56 490 12 102 23 191 25 198 3 9 55 12 215
12 197 0 211 -1 206 -17 -3 -10 -8 -40 -11 -68 -4 -27 -17 -122 -30 -210 -14
-88 -70 -477 -125 -865 -56 -387 -103 -706 -105 -709 -4 -3 -491 -105 -612
-128 -18 -3 -33 -2 -33 2 0 5 -13 106 -29 224 -40 294 -130 973 -181 1371 -17
129 -35 268 -40 308 -6 40 -10 77 -10 82 0 6 84 10 214 10 l214 0 6 -57z
m1314 -648 c-3 -699 -3 -705 17 -705 43 1 305 27 309 31 3 4 16 938 16 1217
l0 162 205 0 205 0 0 -712 c0 -392 -3 -767 -7 -834 l-6 -120 -196 -18 c-222
-20 -713 -79 -841 -101 -47 -8 -93 -15 -103 -15 -16 0 -17 28 -15 513 1 281 3
686 6 900 l4 387 204 0 205 0 -3 -705z m1348 45 l-6 -659 157 5 c87 2 218 6
291 9 l132 4 0 -153 0 -153 -232 -7 c-235 -7 -537 -21 -681 -32 l-77 -5 0 788
c0 433 3 805 7 826 l6 37 205 0 205 0 -7 -660z m1914 350 l0 -310 -205 0 -205
0 -2 123 c-1 67 -2 136 -3 152 l-1 30 -167 3 -167 2 0 -495 c0 -388 3 -497 13
-500 6 -2 83 -5 170 -7 l157 -4 0 99 0 99 198 -7 c108 -4 200 -9 205 -12 4 -2
7 -68 7 -146 l0 -143 -91 -69 c-50 -39 -111 -85 -135 -103 l-44 -34 -263 11
c-144 6 -344 11 -445 11 l-182 0 0 694 0 694 148 111 147 111 433 0 432 0 0
-310z m1333 303 c3 -5 6 -408 8 -898 3 -880 3 -890 -16 -888 -11 2 -85 12
-165 23 -80 11 -164 22 -187 26 l-43 5 0 284 0 284 -32 5 c-18 3 -82 8 -143
11 -60 3 -125 9 -142 12 l-33 5 0 -281 0 -282 -42 6 c-24 3 -115 12 -202 20
-87 8 -160 16 -161 17 -2 2 -6 316 -9 698 l-7 695 158 132 158 132 427 0 c235
1 429 -2 431 -6z m632 -95 c20 -57 55 -152 77 -213 61 -168 212 -598 249 -710
l34 -100 3 563 2 562 190 0 190 0 2 -1030 c2 -810 0 -1030 -9 -1030 -7 0 -79
15 -160 34 -82 19 -165 38 -186 42 -21 3 -42 14 -47 24 -6 10 -34 92 -64 182
-63 190 -216 633 -276 798 -23 63 -46 126 -50 140 -5 14 -8 -216 -7 -513 1
-295 0 -537 -3 -537 -3 0 -89 14 -192 31 l-186 32 -5 341 c-2 188 -5 599 -6
914 l-1 572 204 0 204 0 37 -102z m-2702 -1758 l57 0 0 -125 0 -125 -90 0 -90
0 0 65 0 65 -70 0 -70 0 0 -210 0 -210 70 0 70 0 0 40 0 40 90 0 90 0 0 -62
-1 -63 -56 -42 -57 -43 -193 0 -193 0 0 293 1 292 67 49 67 48 125 -6 c69 -3
151 -6 183 -6z m-833 -65 l0 -65 -30 0 -30 0 0 -214 0 -215 27 2 c26 2 26 1
24 -58 -2 -33 -7 -63 -13 -66 -5 -3 -60 -9 -121 -13 -62 -4 -122 -10 -134 -13
-22 -5 -23 -3 -23 66 l0 71 30 0 30 0 0 215 0 215 -30 0 -30 0 0 65 0 64 68 4
c37 2 104 4 150 5 l82 2 0 -65z m1138 -75 c2 -92 6 -137 15 -142 7 -4 40 -8
75 -8 l62 0 0 140 0 141 88 -3 87 -3 3 -353 2 -353 -57 6 c-32 3 -72 8 -90 11
l-32 5 -3 137 -3 137 -72 3 -73 3 0 -137 0 -137 -46 7 c-26 3 -66 6 -90 6
l-44 0 0 340 0 341 88 -3 87 -3 3 -135z m-1510 63 l-3 -68 -75 -5 -75 -5 -3
-287 c-1 -159 -3 -288 -5 -289 -1 0 -41 -6 -89 -13 l-88 -12 0 294 0 295 -80
-6 -80 -5 0 69 c0 47 4 71 13 74 10 4 291 19 440 23 l48 2 -3 -67z m2309 40
c9 -4 13 -26 13 -74 l0 -69 -92 6 c-51 4 -104 7 -117 8 -24 1 -24 -1 -22 -64
2 -36 8 -68 14 -72 7 -4 35 -8 63 -8 28 0 72 -3 98 -6 l46 -7 0 -70 0 -70 -47
6 c-27 4 -76 9 -110 13 l-63 7 0 -86 c0 -99 -16 -87 148 -108 l92 -12 0 -71 0
-72 -207 31 -208 30 -3 354 -2 354 191 -8 c106 -4 198 -9 206 -12z m-2892
-375 c-4 -205 -10 -376 -13 -379 -7 -7 -126 -29 -153 -29 -10 0 -41 66 -95
200 l-79 201 -5 -218 -5 -218 -45 -11 c-25 -6 -62 -14 -84 -18 l-38 -7 3 400
c2 219 7 403 12 407 4 4 44 10 90 12 l82 4 17 -48 c9 -27 31 -85 48 -129 17
-44 44 -112 59 -152 15 -40 30 -75 34 -79 4 -4 7 90 7 209 l0 216 53 4 c28 2
67 4 86 5 l33 2 -7 -372z m3298 348 c93 -8 171 -17 174 -20 3 -3 8 -186 11
-407 l5 -400 -38 7 c-20 3 -60 12 -89 18 l-51 11 -5 130 -5 130 -72 11 -72 11
-3 -127 -3 -126 -85 15 -85 16 -3 317 -2 316 67 56 c37 31 72 56 78 56 5 0 86
-7 178 -14z m-3886 -373 c-4 -192 -7 -375 -7 -409 l0 -61 -75 -16 c-42 -10
-80 -17 -85 -17 -6 0 -10 54 -10 135 0 102 -3 135 -12 135 -7 -1 -40 -6 -73
-13 l-60 -13 -3 -141 -3 -141 -84 -21 c-46 -11 -87 -21 -90 -21 -3 0 -5 168
-5 373 l0 372 73 78 72 77 130 14 c72 7 154 14 184 15 l54 1 -6 -347z m4416
325 l227 -22 0 -84 0 -84 -67 7 c-38 4 -72 8 -78 8 -6 1 -8 -126 -6 -345 3
-398 16 -358 -104 -330 l-70 17 -3 341 -2 341 -38 7 c-20 3 -51 6 -69 6 -59 0
-63 5 -63 86 0 70 1 74 23 74 12 1 124 -9 250 -22z m-2555 -225 l-3 -48 -122
-3 -123 -3 0 50 0 51 126 0 125 0 -3 -47z"/>
<path d="M17110 5326 l0 -244 128 -6 c70 -4 148 -9 175 -12 l47 -6 -2 254 -3
253 -172 3 -173 2 0 -244z"/>
<path d="M17160 3725 c0 -113 0 -115 23 -115 12 0 46 -3 75 -6 l52 -7 0 112
c0 81 -3 113 -12 116 -7 2 -41 6 -75 10 l-63 6 0 -116z"/>
<path d="M13215 3775 c-5 -2 -36 -6 -67 -10 l-58 -6 0 -126 0 -125 33 6 c17 3
51 8 75 12 l42 7 0 123 c0 68 -3 124 -7 123 -5 0 -12 -2 -18 -4z"/>
<path d="M19342 7697 c-55 -59 4 -193 122 -279 49 -35 85 -36 126 -2 40 35 60
74 60 122 0 34 -7 45 -55 91 -65 62 -124 90 -186 91 -35 0 -51 -5 -67 -23z"/>
</g>
</svg>
